<svg width="2764" height="2764" viewBox="0 0 2764 2764" fill="none" xmlns="http://www.w3.org/2000/svg">
<path d="M754.74 402.497C802.783 401.653 852.829 402.796 901.087 402.908L1174.55 403.078L1953.77 402C2030.26 401.956 2103.74 405.905 2162.75 463.403C2191.77 491.676 2210.55 534.881 2216.69 574.51C2223.29 617.151 2219.47 664.037 2219.43 707.466C2219.38 760.617 2219.64 813.827 2219.79 867.019L2220.73 1536.37C2220.6 1571.84 2219.49 1619.93 2213.89 1655.46C2194.73 1777.06 2141.44 1905.05 2064.11 2000.95C2025.47 2048.86 1975.5 2095.32 1931.64 2138.85C1930.18 2071.58 1931.49 2001.39 1931.38 1933.82L1929.12 1735.23C1928.5 1667.85 1934.34 1588.42 1918.78 1523.6C1910.45 1488.88 1869.11 1439.1 1853.22 1405.87C1861.33 1383.25 1873.47 1361.72 1881.72 1339.09C1950.94 1149.24 1875.67 966.004 1733.58 837.557C1697.5 806.946 1657.39 778.958 1618.05 752.763C1548.76 706.635 1476.84 663.167 1416.08 605.656C1406.08 596.185 1389.94 580.436 1382.08 569.563C1343.28 620.122 1292.46 653.335 1240.67 688.778C1092.6 790.097 931.023 884.271 877.092 1067.24C838.793 1197.18 848.853 1287.26 913.13 1406.32C838.563 1514.7 836.575 1522.24 836.114 1652.38L835.684 1767.18C834.005 1895.25 833.616 2023.33 834.515 2151.41C822.838 2141.26 811.437 2130.79 800.321 2120.03C742.971 2063.97 693.676 2000.23 653.853 1930.62C600.746 1839.79 559.463 1729.45 549.099 1624.56C543.82 1571.11 544.309 1512.16 544.386 1458.3L544.509 1264.46C545.742 1074.41 545.304 884.359 543.196 694.318C541.837 614.021 546.044 528.86 605.178 468.153C644.395 427.362 698.167 403.756 754.74 402.497Z" fill="#6AB0E3" style="fill:#6AB0E3;fill:color(display-p3 0.4157 0.6902 0.8902);fill-opacity:1;"/>
<path d="M1379.13 757.733C1412 760.973 1628.02 921.275 1666.93 951.057C1727.43 997.36 1779.51 1095.32 1785.42 1174.16C1792.89 1273.87 1754.8 1338.78 1693.67 1411.93C1706.63 1423.15 1719.3 1434.71 1731.66 1446.6C1807.74 1520.58 1805 1555.16 1806.34 1656.13C1783.98 1638.21 1760.54 1614.11 1738.94 1598.02C1630.21 1517.03 1509.66 1454.93 1388.69 1394.94C1377.91 1389.54 1322.91 1424.54 1309.2 1431.11C1178.45 1493.76 1069.44 1559.05 961.367 1656.34C961.306 1649.95 961.316 1643.56 961.401 1637.17C963.138 1511.96 979.936 1499.18 1069.24 1412.36C1055.44 1394.75 1042.51 1376.47 1030.52 1357.59C985.248 1285.95 966.375 1215.23 985.665 1131.23C996.313 1085.83 1017.09 1043.43 1046.44 1007.21C1113.04 924.243 1286.73 815.311 1379.13 757.733Z" fill="#6AB0E3" style="fill:#6AB0E3;fill:color(display-p3 0.4157 0.6902 0.8902);fill-opacity:1;"/>
<path d="M1598.78 1703.91C1609.03 1705.74 1618.65 1710.72 1629 1711.77C1643.55 1713.25 1658.62 1712.16 1673.27 1712.81C1702.56 1714.11 1756.24 1720.08 1779.34 1739.08C1785.57 1744.2 1793.83 1754.28 1793.96 1762.82C1794.25 1782.14 1759.5 1778.92 1746.71 1781.92C1739.88 1783.52 1733.06 1788 1727.48 1792.18C1663.31 1840.17 1684.24 1893.98 1645.66 1948.47C1616.78 1989.25 1562.33 1998.85 1529.39 2035.52C1494.83 2074 1478.01 2214.16 1481.96 2267.51C1485.34 2313.27 1505.76 2329.75 1538.68 2357.93C1487.84 2360.25 1443.06 2360.93 1392.15 2361.19C1399.43 2324.42 1404.07 2299.37 1400.87 2261.26C1398.84 2236.97 1394.4 2209.13 1394.66 2185.31C1394.79 2173.58 1398.56 2149.77 1400.15 2137.29C1403.42 2111.61 1404.84 2091.82 1404.73 2066.05C1324.74 2064.63 1299.03 2074.42 1222.29 2036.59C1202.7 2077.41 1187.72 2124.22 1187.9 2170.1C1188.1 2220.36 1214.11 2277.31 1244.76 2316.35C1257.09 2332.05 1273.13 2347.32 1287.51 2361.35C1267.61 2359.24 1241.31 2359.19 1221.16 2358.99C1214.32 2329.97 1210.19 2312.69 1197.31 2285.41C1163.26 2220 1135.3 2202.05 1152.72 2122.09C1088.29 2213.45 1064.67 2260.2 1151.04 2346.57C1133.66 2342.18 1108.63 2334.22 1091.7 2328.24C1086.75 2306.14 1082.24 2285.25 1075.97 2263.46C1068.72 2238.27 1058.7 2211.52 1052.78 2186.22C1061.94 2156.16 1082.28 2125.74 1083.83 2092.74C1085.46 2057.82 1087.21 2011.52 1078.66 1977.7C1067.09 2009.03 1076.15 2054.97 1070.15 2088.19C1069.09 2094.06 1065.79 2112.02 1057.13 2108.73C1045.59 2092.3 1056.56 2070.95 1060.23 2054.29C1066.84 2024.31 1063.41 1993.13 1068.99 1962.79C1082.99 1886.67 1154.53 1846.31 1209.32 1800.91C1243.95 1771.91 1268.2 1715.92 1320.72 1717.73C1346.05 1718.6 1373.47 1764.81 1389.92 1783.27C1484.27 1761.07 1471.14 1782.2 1514.98 1854.1C1524.57 1873.49 1553.73 1889.18 1572.46 1872.01C1597.65 1848.93 1606 1770.06 1609.71 1737.75C1603.61 1724.81 1600.68 1718.14 1598.78 1703.91ZM1443.77 2339.14C1447.62 2341.83 1452.16 2345.05 1457.12 2343.78C1458.41 2343.44 1458.61 2343.34 1459.19 2342.19C1465.69 2329.54 1450.42 2132.14 1443.41 2108.49C1436.89 2128.99 1436.91 2154.78 1433.65 2176.13C1424.19 2238 1405.45 2283.25 1443.77 2339.14Z" fill="#6AB0E3" style="fill:#6AB0E3;fill:color(display-p3 0.4157 0.6902 0.8902);fill-opacity:1;"/>
</svg>
